<?xml version="1.0" encoding="UTF-8" standalone="no"?>
<!-- Created with Inkscape (http://www.inkscape.org/) -->

<svg
   version="1.1"
   id="svg4816"
   width="150"
   height="149.99985"
   viewBox="0 0 150 149.99984"
   sodipodi:docname="Algeria_road_sign-B2.svg"
   inkscape:version="1.2.2 (732a01da63, 2022-12-09)"
   xml:space="preserve"
   xmlns:inkscape="http://www.inkscape.org/namespaces/inkscape"
   xmlns:sodipodi="http://sodipodi.sourceforge.net/DTD/sodipodi-0.dtd"
   xmlns="http://www.w3.org/2000/svg"
   xmlns:svg="http://www.w3.org/2000/svg"><defs
     id="defs4820" /><sodipodi:namedview
     id="namedview4818"
     pagecolor="#ffffff"
     bordercolor="#000000"
     borderopacity="0.25"
     inkscape:showpageshadow="2"
     inkscape:pageopacity="0.0"
     inkscape:pagecheckerboard="0"
     inkscape:deskcolor="#d1d1d1"
     showgrid="false"
     showguides="false"
     inkscape:zoom="1.4142136"
     inkscape:cx="189.15106"
     inkscape:cy="-40.65864"
     inkscape:window-width="1920"
     inkscape:window-height="991"
     inkscape:window-x="-9"
     inkscape:window-y="-9"
     inkscape:window-maximized="1"
     inkscape:current-layer="g4822"><sodipodi:guide
       position="83.566617,149.85124"
       orientation="0,-1"
       id="guide4950"
       inkscape:locked="false" /><sodipodi:guide
       position="87.817217,-144.50297"
       orientation="0,-1"
       id="guide4952"
       inkscape:locked="false" /><sodipodi:guide
       position="0.14854285,-5.2957456"
       orientation="1,0"
       id="guide4954"
       inkscape:locked="false" /><sodipodi:guide
       position="297.6907,3.2054542"
       orientation="1,0"
       id="guide4956"
       inkscape:locked="false" /><sodipodi:guide
       position="162.20279,3.1559142"
       orientation="0,-1"
       id="guide22623"
       inkscape:locked="false" /><sodipodi:guide
       position="156.60755,-66.662448"
       orientation="0,-1"
       id="guide22625"
       inkscape:locked="false" /><sodipodi:guide
       position="45.045566,-17.383416"
       orientation="1,0"
       id="guide22767"
       inkscape:locked="false" /><sodipodi:guide
       position="99.337446,26.261044"
       orientation="0,-1"
       id="guide23122"
       inkscape:locked="false" /><sodipodi:guide
       position="97.836076,14.440284"
       orientation="0,-1"
       id="guide23124"
       inkscape:locked="false" /></sodipodi:namedview><g
     inkscape:groupmode="layer"
     inkscape:label="Image"
     id="g4822"
     transform="translate(-96.552661,-66.267052)"><g
       id="circle22771"
       style="opacity:0.5" /><g
       id="g8555"
       transform="matrix(0.98558616,0,0,0.98558616,-187.04204,181.88611)"><path
         id="circle15370"
         style="fill:#de2925;fill-rule:evenodd;stroke-width:28.8932;stroke-linecap:square;paint-order:stroke fill markers"
         d="m 439.42957,-41.213181 a 75.590553,75.590553 0 0 1 -75.59055,75.590554 75.590553,75.590553 0 0 1 -75.59055,-75.590554 75.590553,75.590553 0 0 1 75.59055,-75.590549 75.590553,75.590553 0 0 1 75.59055,75.590549 z" /><path
         id="circle15372"
         style="fill:#ffffff;fill-rule:evenodd;stroke-width:21.1884;stroke-linecap:square;paint-order:stroke fill markers"
         d="m 419.0921,-41.393173 a 55.433071,55.433071 0 0 1 -55.43307,55.433071 55.433071,55.433071 0 0 1 -55.43307,-55.433071 55.433071,55.433071 0 0 1 55.43307,-55.433071 55.433071,55.433071 0 0 1 55.43307,55.433071 z" /><path
         id="path15224"
         style="color:#000000;fill:#000000;fill-rule:evenodd;stroke-width:1.04621;stroke-linecap:square;-inkscape-stroke:none;paint-order:stroke fill markers"
         d="m 381.75267,-63.23168 c -7.82135,0 -14.40169,6.578155 -14.40169,14.399509 v 14.877997 c 0,7.821354 6.58034,14.399509 14.40169,14.399509 7.82136,0 14.40007,-6.578155 14.40007,-14.399509 v -14.877997 c 0,-7.821354 -6.57871,-14.399509 -14.40007,-14.399509 z m -5.4e-4,9.034696 c 2.97278,0 5.36591,2.393122 5.36591,5.365871 v 14.876939 c 0,2.972787 -2.39313,5.365909 -5.36591,5.365909 -2.97278,0 -5.36644,-2.393122 -5.36644,-5.365909 v -14.876939 c 0,-2.972749 2.39366,-5.365871 5.36644,-5.365871 z" /><path
         id="path15285"
         style="color:#000000;fill:#000000;fill-rule:evenodd;stroke-width:1.03614;stroke-linecap:square;-inkscape-stroke:none;paint-order:stroke fill markers"
         d="m 333.17053,-63.23168 v 9.294161 11.305323 l 0.14351,0.08958 7.94702,4.961953 a 5.0087237,5.0087237 0 0 1 3.34652,-1.285078 5.0087237,5.0087237 0 0 1 5.00852,5.009046 5.0087237,5.0087237 0 0 1 -5.00852,5.008517 5.0087237,5.0087237 0 0 1 -4.76382,-3.491074 l -8.04127,4.771313 c 2.3621,4.71205 7.25918,8.01343 12.80401,8.01343 7.7888,0 14.3038,-6.512882 14.3038,-14.301657 0,-7.788737 -6.515,-14.303773 -14.3038,-14.303773 -0.72652,0 -1.44171,0.05745 -2.14176,0.166677 v -5.94395 h 14.8403 v -9.29416 h -14.8403 z" /></g></g></svg>
