<?xml version="1.0" encoding="UTF-8" standalone="no"?>
<svg
   width="103.38481mm"
   height="90.848969mm"
   viewBox="0 0 103.38482 90.848968"
   version="1.1"
   id="svg2603"
   inkscape:version="1.2.2 (732a01da63, 2022-12-09)"
   sodipodi:docname="Algeria_road_sign-A9.svg"
   xml:space="preserve"
   xmlns:inkscape="http://www.inkscape.org/namespaces/inkscape"
   xmlns:sodipodi="http://sodipodi.sourceforge.net/DTD/sodipodi-0.dtd"
   xmlns="http://www.w3.org/2000/svg"
   xmlns:svg="http://www.w3.org/2000/svg"
   xmlns:rdf="http://www.w3.org/1999/02/22-rdf-syntax-ns#"
   xmlns:cc="http://creativecommons.org/ns#"
   xmlns:dc="http://purl.org/dc/elements/1.1/"><defs
     id="defs2597" /><sodipodi:namedview
     id="base"
     pagecolor="#ffffff"
     bordercolor="#666666"
     borderopacity="1.0"
     inkscape:pageopacity="0.0"
     inkscape:pageshadow="2"
     inkscape:zoom="1.6126218"
     inkscape:cx="136.73386"
     inkscape:cy="271.29734"
     inkscape:document-units="mm"
     inkscape:current-layer="g8293"
     inkscape:document-rotation="0"
     showgrid="false"
     inkscape:window-width="1920"
     inkscape:window-height="991"
     inkscape:window-x="-9"
     inkscape:window-y="-9"
     inkscape:window-maximized="1"
     inkscape:showpageshadow="2"
     inkscape:pagecheckerboard="0"
     inkscape:deskcolor="#d1d1d1"
     showguides="true" /><metadata
     id="metadata2600"><rdf:RDF><cc:Work
         rdf:about=""><dc:format>image/svg+xml</dc:format><dc:type
           rdf:resource="http://purl.org/dc/dcmitype/StillImage" /></cc:Work></rdf:RDF></metadata><g
     inkscape:label="Layer 1"
     inkscape:groupmode="layer"
     id="layer1"
     transform="translate(-87.813343,-171.14166)"><g
       id="g3200"
       transform="matrix(6.6207639,0,0,6.6207639,-491.12749,-959.60106)"><g
         id="g998"
         transform="matrix(0.35277777,0,0,-0.35277777,102.92209,183.18072)" /><g
         id="g1006"
         transform="matrix(0.35277777,0,0,-0.35277777,102.1554,183.73447)" /><g
         id="g1010"
         transform="matrix(0.35277777,0,0,-0.35277777,92.686773,181.35068)" /><g
         id="g5534"
         transform="matrix(0.67271182,0,0,0.67271182,31.65051,56.978591)"><g
           id="g8293"
           transform="matrix(1.0811106,0,0,1.0811106,30.592349,-9.0524375)"><g
             id="g10769"
             transform="matrix(-1,0,0,1,85.763047,-2.4240245)"><path
               style="color:#000000;opacity:1;fill:#de2925;fill-opacity:1;fill-rule:evenodd;stroke-width:0.851081;stroke-linecap:round;stroke-linejoin:round;-inkscape-stroke:none;paint-order:stroke fill markers"
               d="m 26.610988,167.29643 c -0.426012,5e-5 -0.822137,0.22976 -1.035597,0.59843 l -9.519848,16.44655 c -0.44475,0.76934 0.146959,1.79654 1.035598,1.79692 h 19.038033 c 0.888534,-5.9e-4 1.480294,-1.02768 1.035596,-1.79692 l -9.518184,-16.44655 c -0.213412,-0.36859 -0.609682,-0.59829 -1.035598,-0.59843 z"
               id="path7319" /><path
               style="color:#000000;opacity:1;fill:#ffffff;fill-rule:evenodd;stroke-width:1.36816;stroke-linecap:round;stroke-linejoin:round;-inkscape-stroke:none;paint-order:stroke fill markers"
               d="m 26.611024,167.98131 a 0.51297023,0.51297023 0 0 0 -0.443888,0.25595 l -9.519828,16.44656 a 0.51297023,0.51297023 0 0 0 0.443887,0.7697 h 19.038008 a 0.51297023,0.51297023 0 0 0 0.443769,-0.7697 l -9.518179,-16.44656 a 0.51297023,0.51297023 0 0 0 -0.443769,-0.25595 z"
               id="path7321" /></g><g
             id="g16023"
             transform="matrix(1.0387451,0,0,1.0387451,13.850069,-14.155349)"><path
               id="path24992"
               style="fill:#000000;fill-rule:evenodd;stroke:none;stroke-width:0.00211134;stroke-linecap:square;stroke-linejoin:round;stroke-miterlimit:4;stroke-dasharray:none;stroke-opacity:1;paint-order:stroke fill markers"
               d="m 43.029374,178.91681 c -0.005,2e-5 -0.01303,1e-4 -0.01832,2.6e-4 -0.101679,0.002 -0.203619,0.0209 -0.29788,0.0465 -0.09175,0.0235 -0.173826,0.0779 -0.241529,0.13984 -0.0235,0.0209 -0.04232,0.0499 -0.05884,0.0755 -0.01571,0.0262 -0.02849,0.0473 -0.02849,0.0473 a 0.03199377,0.03199377 0 0 0 -5.79e-4,0.0303 c 0,0 0.01571,0.03 0.02898,0.0719 0.01303,0.0416 0.0235,0.0938 0.01571,0.13069 -0.02749,0.13174 -0.02749,0.3276 0.0079,0.49163 0.0392,0.17827 0.116582,0.30726 0.116582,0.30726 a 0.03199377,0.03199377 0 0 0 0.0235,0.0157 l 0.463584,0.0484 0.147416,0.30447 c 0.01571,0.15371 0.03684,0.2949 0.06221,0.39233 0.02088,0.0747 0.05354,0.16311 0.09462,0.25616 -0.0012,0.001 -0.0012,0.003 -0.0031,0.005 -0.0079,0.0105 -0.02088,0.028 -0.03815,0.0484 -0.03553,0.0408 -0.08913,0.0964 -0.15449,0.16155 -0.08338,0.0831 -0.20701,0.17094 -0.316935,0.27408 -0.0622,0.0585 -0.127035,0.11842 -0.191596,0.17827 -0.353927,0.32659 -0.68291,0.64766 -0.69115,0.655 -0.01047,5.5e-4 -0.06507,0.003 -0.143247,0.0157 -0.08547,0.013 -0.184795,0.0322 -0.251189,0.0755 -0.04787,0.0312 -0.101685,0.0748 -0.143508,0.12521 -0.02929,0.0353 -0.0541,0.0748 -0.06251,0.11684 -0.0732,0.051 -0.121811,0.13566 -0.121811,0.23002 v 0.005 c 0,0.15317 0.127558,0.28055 0.280553,0.28055 h 0.279425 c -0.01564,0.0474 -0.03684,0.10613 -0.05853,0.17618 -0.08756,0.28047 -0.213548,0.67196 -0.308146,0.91445 -0.303871,-0.17383 -0.647919,-0.26539 -0.998026,-0.26541 -1.109951,0 -2.009713,0.89978 -2.009713,2.00973 3.1e-5,1.10992 0.899794,2.00969 2.009713,2.00971 1.109951,0 2.009732,-0.89976 2.009732,-2.00971 -5e-5,-0.65738 -0.321584,-1.27318 -0.860987,-1.64891 0.0025,-0.005 0.005,-0.0105 0.0079,-0.0183 0.04076,-0.10325 0.08651,-0.23211 0.132519,-0.36777 l 1.380488,1.57065 c -0.0079,0.003 -0.01564,0.008 -0.0235,0.013 -0.02848,0.0183 -0.04918,0.0504 -0.04837,0.0894 5.8e-4,0.0352 0.02686,0.0609 0.05622,0.0763 0.02929,0.0157 0.06485,0.0235 0.09958,0.0312 0.04993,0.008 0.08861,0.0105 0.111876,0.0105 l 0.139843,0.15892 c -0.08678,0.12234 -0.133572,0.26861 -0.133572,0.41862 0,0.39991 0.324208,0.72411 0.72411,0.72409 0.127564,0 0.253034,-0.0337 0.363389,-0.0978 h 0.736602 v -0.003 c 0.35139,0.64692 1.028398,1.04996 1.764582,1.05049 1.109951,2e-5 2.009732,-0.89977 2.009732,-2.00972 3.1e-5,-1.10995 -0.899781,-2.00973 -2.009732,-2.00973 -0.333277,4.4e-4 -0.661195,0.0839 -0.954245,0.24257 l -0.433067,-0.72469 v -0.17827 c 0.08129,-0.0105 0.159969,-0.0366 0.224792,-0.10194 0.173832,-0.1754 0.182452,-0.45508 0.147953,-0.71106 -0.03453,-0.25591 -0.116582,-0.49558 -0.161802,-0.60806 -0.271347,-0.67441 -1.071207,-1.61767 -1.595195,-2.04693 -0.183238,-0.1503 -0.365664,-0.15892 -0.44612,-0.15631 l -0.07554,-0.73185 a 0.03199377,0.03199377 0 0 0 -0.005,-0.0157 c 0,0 -0.0374,-0.0547 -0.08966,-0.11553 -0.05205,-0.0606 -0.116582,-0.1286 -0.18454,-0.1571 -0.08783,-0.0366 -0.182458,-0.0507 -0.277655,-0.0504 z m 1.41351,1.73219 c 0.05491,0.0577 0.110305,0.11867 0.165978,0.18114 z m -0.802977,1.24461 c -0.005,-5e-5 0.01047,0.003 0.02618,0.0183 0.01832,0.013 0.0384,0.0335 0.0604,0.0557 0.04388,0.0447 0.09044,0.0983 0.124423,0.13357 0.07946,0.0823 0.15082,0.16206 0.205714,0.25957 -0.0012,0.001 -0.0025,0.001 -0.005,0.002 -0.02718,0.013 -0.06719,0.0312 -0.117361,0.0539 -0.100114,0.0457 -0.239433,0.10926 -0.393681,0.18323 -0.308364,0.14795 -0.675562,0.33597 -0.910851,0.50651 -0.124416,0.0902 -0.15474,0.19682 -0.147684,0.27691 5.79e-4,0.0105 0.0025,0.0183 0.005,0.0285 h -0.453705 l 0.01047,-0.10195 H 41.50823 c -0.07947,0 -0.143508,-0.0641 -0.143508,-0.1435 v -0.005 c 0,-0.0795 0.06404,-0.14351 0.143508,-0.14351 h 0.277592 0.03871 0.04887 c 0.03659,0 0.06588,-0.0282 0.06822,-0.0643 0.196307,-0.11031 0.642477,-0.3642 1.030044,-0.60824 0.197872,-0.12468 0.324121,-0.24074 0.422278,-0.32302 0.09828,-0.0823 0.163628,-0.12704 0.247275,-0.12626 z m -0.580029,0.30299 c -0.03896,0.028 -0.08103,0.0565 -0.127551,0.0857 -0.100383,0.0632 -0.203888,0.12651 -0.305604,0.18768 z m -1.144506,1.41104 h 0.579306 c 0.04157,0.0317 0.119717,0.0923 0.208848,0.17304 0.129652,0.11737 0.276526,0.27229 0.345532,0.4159 0.03534,0.0737 0.01832,0.12442 -0.0079,0.1801 -0.02618,0.0554 -0.06189,0.11449 -0.04313,0.18585 0.0235,0.0897 0.09828,0.15788 0.180887,0.22454 0.08259,0.0667 0.17539,0.13226 0.242046,0.20911 0.142978,0.16467 0.192904,0.38239 0.192904,0.38239 0,0 0.005,0.0235 0.01047,0.0529 0.005,0.0293 0.01047,0.0654 0.01047,0.0855 -5.73e-4,0.0209 -0.0079,0.0547 -0.01571,0.0831 -0.005,0.0235 -0.0079,0.0342 -0.01047,0.041 -0.01303,0.005 -0.15239,0.0771 -0.228981,0.11135 -0.0012,5.2e-4 -0.0031,0.001 -0.005,0.001 l -1.573348,-1.79 c 0.04681,-0.14507 0.08234,-0.25877 0.112406,-0.35658 z m 3.233054,0.001 c 0.01832,-3.6e-4 0.03503,-2e-4 0.05254,1.7e-4 v 0.14559 l -0.627443,1.17109 c -0.154484,-0.19265 -0.262514,-0.40403 -0.256687,-0.62585 0.0025,-0.0965 0.07476,-0.23787 0.195529,-0.36477 0.120752,-0.12704 0.286792,-0.24048 0.458978,-0.29948 0.05541,-0.0183 0.115011,-0.0262 0.177223,-0.0267 z m 0.180888,0.27666 h 0.01833 l 0.428442,0.7169 c -0.321771,0.21199 -0.57579,0.51222 -0.731764,0.86465 -0.104297,-0.14794 -0.230808,-0.27391 -0.347022,-0.40014 z m -4.907689,0.75148 c 0.304469,6e-5 0.602979,0.0847 0.862152,0.2444 -0.08966,0.22271 -0.18611,0.43869 -0.315632,0.63749 -0.11109,0.17042 -0.231593,0.31693 -0.335864,0.43126 -0.06302,-0.0402 -0.135923,-0.0614 -0.210687,-0.0614 -0.216166,0 -0.391482,0.1754 -0.391482,0.39146 -2.5e-5,0.21617 0.175135,0.39152 0.391482,0.39154 0.216178,0 0.391543,-0.17539 0.391518,-0.39154 0,-0.0724 -0.02088,-0.14351 -0.05803,-0.20519 0.111091,-0.12129 0.240481,-0.27778 0.359674,-0.46065 0.131741,-0.20231 0.229243,-0.41587 0.316705,-0.6304 0.39964,0.31131 0.633327,0.78956 0.633377,1.29611 -2.5e-5,0.90753 -0.735717,1.64321 -1.643245,1.64318 -0.907498,0 -1.643152,-0.73568 -1.643152,-1.64318 -3.1e-5,-0.9075 0.735654,-1.64318 1.643152,-1.64321 z m 6.458243,0 c 0.907516,0 1.643233,0.73569 1.643214,1.64321 0,0.90753 -0.735698,1.64321 -1.643214,1.64319 -0.723487,-5.8e-4 -1.361439,-0.47442 -1.571148,-1.16682 0.0235,-0.0855 0.06272,-0.1856 0.133043,-0.27305 0.04207,-0.0522 0.122067,-0.0384 0.170946,-0.0933 h 0.892893 c 0.04855,0.1665 0.201014,0.28096 0.374316,0.28159 0.216166,0 0.391506,-0.17539 0.391481,-0.39151 0,-0.21617 -0.175134,-0.39148 -0.391481,-0.39148 -0.04101,2.9e-4 -0.08156,0.008 -0.120247,0.0209 l -0.646155,-1.08125 c 0.236293,-0.12495 0.499206,-0.19003 0.766321,-0.19029 z m -0.916448,0.28021 0.646398,1.08156 c -0.04918,0.0471 -0.08496,0.10639 -0.104297,0.17148 h -0.858437 c -0.05491,-0.10063 -0.147423,-0.18429 -0.236823,-0.2639 -0.03603,-0.0322 -0.07086,-0.0632 -0.10429,-0.0939 0.108473,-0.36568 0.340932,-0.68223 0.657324,-0.89534 z m -1.573186,0.75733 c 0.03297,0.034 0.215393,0.1171 0.285339,0.21278 0.1239,0.16938 0.205714,0.59369 0.205976,0.59488 0.01303,0.11814 0.03422,0.23472 0.06668,0.34887 h -0.241784 c 0.02088,-0.0698 0.03297,-0.1422 0.03297,-0.21538 -8.1e-5,-0.28607 -0.168596,-0.5453 -0.429995,-0.66151 0.0031,-0.0337 0.0079,-0.0656 0.01303,-0.0896 0.01303,-0.062 0.05304,-0.15292 0.06873,-0.1903 z" /></g></g></g></g></g></svg>
