<?xml version="1.0" encoding="UTF-8"?>
<svg xmlns="http://www.w3.org/2000/svg" viewBox="0 0 160 110" role="img" aria-labelledby="title">
  <title id="title">القيادة ليلاً</title>
  <defs>
    <linearGradient id="bg" x1="0" y1="0" x2="1" y2="1"><stop stop-color="#eff8f2"/><stop offset="1" stop-color="#dcefe3"/></linearGradient>
    <linearGradient id="road" x1="0" y1="0" x2="0" y2="1"><stop stop-color="#3d5b4d"/><stop offset="1" stop-color="#213a2e"/></linearGradient>
  </defs>
  <rect width="160" height="110" rx="16" fill="url(#bg)"/>
  <circle cx="135" cy="22" r="25" fill="#087346" opacity=".08"/>
  <path d="M12 110 57 42h46l45 68Z" fill="url(#road)"/><path d="M80 54v56" stroke="#efbd50" stroke-width="4" stroke-dasharray="9 6"/><g transform="translate(56 63)"><path d="M5 25h50v-16l-9-9H20l-8 9H5Z" fill="#0a5273"/><path d="M17 9h28l5 7H12Z" fill="#d7eef2"/><circle cx="16" cy="26" r="6" fill="#173528"/><circle cx="45" cy="26" r="6" fill="#173528"/><circle cx="16" cy="26" r="2" fill="#f5f7f6"/><circle cx="45" cy="26" r="2" fill="#f5f7f6"/></g><path d="M35 25a15 15 0 1 0 11-23 13 13 0 1 1-11 23Z" fill="#efbd50"/><path d="M70 79l-22-12M91 79l22-12" stroke="#f7e5a8" stroke-width="4" stroke-linecap="round" opacity=".9"/>
</svg>